# xmcd
#
# Track frame offsets:
#	150
#	11282
#	26960
#	45340
#	63682
#	81307
#	102687
#	127680
#	144755
#	167312
#
# Disc length: 2565 seconds
#
# Revision: 1
# Processed by: cddbd v1.5PL3 Copyright (c) Steve Scherf et al.
# Submitted via: CDex 1.50Beta5
#
DISCID=760a030a
DTITLE=横道坊主 - ROUGH ROCKS
DYEAR=1990
DGENRE=Pop
TTITLE0=DIRTY MARKET
TTITLE1=暴発ピストル
TTITLE2=NOISY PARADISE
TTITLE3=WICKED ANGEL
TTITLE4=RIOT
TTITLE5=UNDERGROUND
TTITLE6=LOOSE ROCK JAM
TTITLE7=東京子供
TTITLE8=BATTLE BOOTS
TTITLE9=秋風が吹く
EXTD=
EXTT0=
EXTT1=
EXTT2=
EXTT3=
EXTT4=
EXTT5=
EXTT6=
EXTT7=
EXTT8=
EXTT9=
PLAYORDER=
